<svg width="1712" height="1548" viewBox="0 0 1712 1548" fill="none" xmlns="http://www.w3.org/2000/svg">
<path d="M1.75483 794.022C1.56301 568.179 1.53104 343.391 0.923621 118.603C0.827712 85.4352 13.8713 59.2079 36.7296 36.7547C61.634 12.2545 91.9412 0.739996 126.66 0.739996C610.393 0.708011 1094.13 0.548086 1577.83 0.899916C1645.41 0.931901 1695.86 49.6765 1710.66 109.392C1711.24 111.727 1711.01 114.253 1711.01 116.716C1711.01 148.637 1711.3 180.557 1710.69 212.446C1710.6 218.107 1707.91 224.632 1704.43 229.206C1685.95 253.354 1666.54 276.799 1648.16 301.012C1644.99 305.202 1643.91 311.918 1643.91 317.452C1643.72 502.611 1643.81 687.769 1643.81 872.96C1643.81 1056.71 1642.53 1240.5 1644.52 1424.25C1645.12 1481.05 1592.47 1547.64 1520.76 1547.39C1339.21 1546.75 1157.62 1546.24 976.062 1546.24C692.14 1546.24 408.217 1546.49 124.295 1547.23C60.8028 1547.39 9.5874 1492.21 2.23438 1444.21C0.667866 1433.91 1.3712 1423.22 1.3712 1412.7C1.49908 1206.78 1.62695 1000.93 1.75483 794.022ZM86.0908 1505.65C106.232 1516.39 128.291 1516.97 150.254 1516.94C329.732 1516.71 509.209 1516.08 688.687 1516.08C952.66 1516.08 1216.6 1516.49 1480.58 1516.62C1497.71 1516.62 1515.2 1517.42 1531.98 1514.64C1582.37 1506.29 1616.77 1457.83 1616.67 1408.86C1616.03 1050.09 1616.29 691.288 1616.25 332.516C1616.25 321.29 1615.55 310.063 1616.09 298.869C1616.35 293.335 1617.18 286.714 1620.31 282.556C1638.22 258.824 1657.18 235.891 1675.11 212.222C1679.01 207.073 1682.3 200.004 1682.5 193.703C1683.13 173.041 1683.33 152.251 1681.7 131.685C1678.6 93.0156 1658.84 64.2614 1625.49 44.9747C1605.26 33.3003 1582.88 30.2938 1559.89 30.2938C1405.99 30.3897 1252.12 30.4857 1098.22 30.4537C779.577 30.4537 460.903 30.3897 142.261 30.2618C117.709 30.2618 94.5947 34.6437 73.7185 48.461C47.7272 65.7007 30.1439 89.4014 29.7922 120.49C28.5454 227.095 29.2487 333.7 29.1848 440.305C29.0569 762.613 29.0249 1084.89 28.6093 1407.2C28.5454 1451.15 46.7042 1483.55 86.0908 1505.65Z" fill="#002583"/>
<path d="M1564.53 216.124C1528.82 263.014 1493.65 309.424 1458.26 355.609C1446.94 370.386 1441.22 385.611 1441.28 405.313C1442.02 717.099 1441.86 1028.89 1441.86 1340.67C1441.86 1345.88 1441.86 1351.1 1441.86 1356.28C1459 1356.28 1475.4 1356.25 1491.8 1356.31C1499.37 1356.34 1506.92 1358.77 1507.94 1366.61C1508.61 1371.82 1505.54 1378.7 1501.9 1382.86C1499.34 1385.77 1492.98 1386.19 1488.31 1386.19C1430.48 1386.31 1372.65 1386.12 1314.78 1386.12C1022.07 1386.09 729.384 1386.06 436.67 1386.12C344.821 1386.15 252.972 1386.57 161.156 1386.41C155.017 1386.41 147.824 1384.17 142.965 1380.52C133.918 1373.71 137.626 1365.17 142.901 1357.4C164.672 1325.32 186.412 1293.24 208.215 1261.22C223.528 1238.74 238.938 1216.35 256.873 1190.18C256.873 1156.95 256.905 1119.47 256.873 1081.95C256.745 985.162 256.521 888.345 256.393 791.56C256.361 770.897 259.91 767.891 280.115 768.083C305.339 768.339 330.595 768.019 355.819 767.507C370.301 767.219 375.448 771.761 375.48 786.474C375.64 856.264 375.768 926.055 375.96 995.845C375.96 999.172 376.535 1002.5 379.317 1006.69C390.698 989.736 402.495 973.072 413.108 955.673C415.698 951.419 414.643 944.766 414.675 939.201C414.867 823.832 414.963 708.432 415.059 593.063C415.059 577.071 421.101 570.93 437.118 570.866C462.022 570.77 486.894 570.77 511.799 570.802C527.144 570.834 530.885 574.8 530.853 590.025C530.789 652.107 530.821 714.189 530.853 776.239C530.853 778.158 531.172 780.109 531.62 785.131C541.019 770.066 548.628 757.368 556.748 745.022C564.9 732.676 578.136 728.806 589.229 736.642C594.824 740.608 599.236 747.293 602.305 753.658C622.318 794.918 641.787 836.434 661.545 877.822C664.933 884.955 668.77 891.863 674.78 898.516C675.132 894.646 675.803 890.808 675.803 886.938C675.803 694.39 675.771 501.843 675.739 309.328C675.739 305.457 675.739 301.619 675.931 297.749C676.475 285.947 681.941 280.541 693.514 280.541C723.31 280.541 753.106 280.541 782.902 280.701C793.835 280.765 797.895 285.243 797.831 296.182C797.544 354.394 797.192 412.606 797.096 470.786C796.872 582.668 796.776 694.55 796.648 806.4C796.617 844.91 796.648 883.387 796.648 924.647C800.868 921.257 803.938 919.53 805.984 916.971C825.101 893.367 844.379 869.89 862.698 845.678C866.47 840.72 867.781 832.82 867.813 826.263C868.228 740.352 868.26 654.41 868.228 568.499C868.228 521.513 867.717 474.528 868.101 427.543C868.133 423.161 872.065 417.308 875.933 414.781C882.775 410.303 888.305 415.069 893.293 420.922C893.293 470.37 893.293 520.074 893.293 570.706C916.567 570.706 939.233 570.706 961.9 570.706C982.712 570.706 987.06 575.855 986.708 597.093C986.228 626.871 986.58 656.648 986.58 687.578C1000.26 689.657 1005.51 700.883 1011.07 712.366C1020.24 731.269 1030.15 749.852 1039.75 768.563C1040.61 768.371 1041.5 768.211 1042.37 768.019C1042.37 757.784 1042.37 747.549 1042.37 737.314C1042.27 626.135 1042.18 514.957 1042.08 403.778C1042.08 386.347 1047.1 381.613 1064.59 381.805C1090.87 382.061 1117.18 381.997 1143.46 382.157C1160.69 382.252 1164.24 385.931 1164.2 403.17C1164.14 525.927 1164.11 648.684 1164.08 771.409C1164.08 772.081 1164.33 772.721 1164.72 774.608C1166.15 772.849 1167.27 771.825 1167.98 770.546C1187 735.714 1206.15 700.915 1224.82 665.86C1226.96 661.83 1227.18 656.457 1227.18 651.691C1227.28 545.086 1227.22 438.449 1227.15 331.845C1227.15 319.339 1232.3 314.445 1245.05 314.477C1272.74 314.509 1300.43 314.125 1328.11 314.509C1334.28 314.605 1340.42 317.228 1347.33 318.891C1347.33 363.51 1347.33 406.113 1347.33 451.819C1358.04 436.338 1366.86 422.905 1376.42 409.983C1429.04 338.977 1481.79 268.131 1534.57 197.254C1540.39 189.449 1546.11 182.509 1544.87 171.154C1543.27 156.825 1553.69 146.078 1568.2 143.871C1581.76 141.824 1596.66 150.492 1600.97 162.934C1605 174.544 1597.74 187.05 1585.5 194.983C1577.57 200.196 1571.75 208.608 1564.53 216.124ZM1348.41 771.953C1348.41 966.771 1348.41 1161.59 1348.41 1356.18C1371.46 1356.18 1393.75 1356.18 1416.22 1356.18C1416.22 1042.29 1416.22 729.413 1416.22 416.572C1393.46 446.797 1372.26 477.599 1351.87 508.976C1348.57 514.061 1347.77 521.545 1347.77 527.91C1347.77 608.544 1348.16 689.177 1348.41 771.953ZM1323.67 877.15C1323.67 772.241 1323.67 667.363 1323.67 560.215C1321.4 563.413 1320.31 564.661 1319.51 566.1C1299.53 602.147 1279.71 638.321 1259.57 674.272C1254.13 683.995 1252.44 693.975 1252.44 705.041C1252.63 918.155 1252.57 1131.27 1252.57 1344.35C1252.57 1348.16 1252.57 1351.96 1252.57 1355.8C1276.61 1355.8 1299.82 1355.8 1323.67 1355.8C1323.67 1196.04 1323.67 1037.65 1323.67 877.15ZM699.557 658.312C699.621 752.954 699.684 847.629 699.844 942.271C699.844 947.804 699.301 954.041 701.571 958.743C711.801 980.173 722.926 1001.19 734.755 1024.41C744.826 1009.95 753.01 997.061 762.409 985.13C769.986 975.503 772.703 965.364 772.671 953.21C772.192 744.286 772.064 535.363 771.808 326.407C771.808 320.618 771.297 314.829 771.009 308.784C746.808 308.784 723.854 308.784 699.557 308.784C699.557 425.016 699.557 540.608 699.557 658.312ZM961.932 1039.18C961.932 949.628 961.932 860.071 961.932 768.499C946.107 788.649 932.775 808.288 916.695 825.335C898.12 845.038 892.685 866.787 892.845 893.527C893.804 1044.27 893.165 1195.01 893.069 1345.76C893.069 1349.18 893.069 1352.57 893.069 1355.99C916.535 1355.99 939.041 1355.99 961.932 1355.99C961.932 1250.15 961.932 1145.73 961.932 1039.18ZM599.843 1347.84C599.747 1185.16 599.364 1022.49 599.907 859.815C599.971 836.21 598.437 814.045 584.242 794.278C581.685 790.728 580.342 786.314 577.688 780.813C565.892 797.349 555.31 813.629 543.225 828.694C533.922 840.272 530.629 852.362 530.661 867.075C530.981 1010.11 530.725 1153.18 530.661 1296.21C530.661 1316.14 530.661 1336.07 530.661 1356.25C553.935 1356.25 575.93 1356.25 598.309 1356.25C598.884 1353.72 599.332 1351.77 599.843 1347.84ZM1195.41 792.519C1186.81 809.087 1177.57 825.399 1169.86 842.383C1166.41 849.964 1164.46 858.951 1164.43 867.299C1164.11 1026.17 1164.2 1185.03 1164.2 1343.9C1164.2 1348.03 1164.2 1352.12 1164.2 1355.9C1185.66 1355.9 1206.15 1355.9 1226.9 1355.9C1226.9 1148.35 1226.9 942.079 1226.9 733.827C1215.93 754.042 1205.89 772.529 1195.41 792.519ZM1093.45 878.494C1096.11 883.195 1098.76 887.897 1101.8 893.239C1113.72 871.137 1125.33 850.155 1136.26 828.822C1138.5 824.44 1138.92 818.746 1138.92 813.661C1139.04 682.908 1139.04 552.155 1139.01 421.402C1139.01 417.659 1138.69 413.917 1138.53 410.111C1114.52 410.111 1091.28 410.111 1068.13 410.111C1067.88 412.094 1067.62 413.118 1067.62 414.141C1067.69 548.764 1067.69 683.356 1067.97 817.979C1067.97 824.056 1069.64 830.549 1072.16 836.082C1078.49 849.995 1085.78 863.461 1093.45 878.494ZM1042.21 856.616C1040.83 850.635 1040.42 844.238 1037.92 838.769C1030.86 823.384 1023.15 808.288 1015.32 793.287C1006.56 776.527 997.354 760.023 986.996 740.896C986.996 948.22 986.996 1152.12 986.996 1355.96C1006.24 1355.96 1023.89 1355.96 1042.24 1355.96C1042.21 1189.32 1042.21 1023.96 1042.21 856.616ZM1139.04 1266.47C1139.04 1144.16 1139.04 1021.88 1139.04 899.572C1132.2 909.455 1127.57 919.658 1121.72 929.061C1111.61 945.246 1092.14 944.606 1083.03 927.942C1078.43 919.53 1074.75 910.606 1070.66 901.938C1070.05 902.034 1069.41 902.098 1068.81 902.194C1068.81 1053.35 1068.81 1204.51 1068.81 1356.47C1091.76 1356.47 1115.07 1356.47 1139.08 1356.47C1139.04 1326.66 1139.04 1297.62 1139.04 1266.47ZM796.425 1224.38C796.425 1268.42 796.425 1312.49 796.425 1356.25C821.841 1356.25 844.475 1356.25 868.005 1356.25C868.005 1201.73 868.005 1048.11 868.005 894.646C867.749 894.742 866.854 894.806 866.502 895.286C846.393 921.097 826.348 946.973 806.239 972.752C798.918 982.124 795.945 992.263 796.041 1004.55C796.648 1077.15 796.393 1149.69 796.425 1224.38ZM504.318 1098.1C504.318 1027.41 504.318 956.696 504.318 885.882C483.314 914.764 462.054 943.934 441.21 972.56C441.21 1101.07 441.21 1228.89 441.21 1356.06C462.885 1356.06 483.666 1356.06 504.318 1356.06C504.318 1269.86 504.318 1185.03 504.318 1098.1ZM624.684 1145.57C624.684 1215.9 624.684 1286.27 624.684 1355.9C642.747 1355.9 658.731 1355.9 675.867 1355.9C675.867 1350.94 675.867 1346.81 675.867 1342.72C675.771 1231.64 675.292 1120.52 675.931 1009.44C676.059 987.849 672.414 968.402 661.673 949.755C654.256 936.93 648.405 923.176 641.692 909.935C637.088 900.819 632.229 891.863 627.465 882.844C626.538 883.004 625.611 883.163 624.684 883.323C624.716 970.066 624.716 1056.81 624.684 1145.57ZM766.085 1356.79C776.476 1355.03 771.744 1346.75 771.744 1341.66C771.904 1245.61 771.648 1149.56 771.488 1053.51C771.488 1047.53 771.488 1041.58 771.488 1035.6C763.752 1043.82 758.605 1052.43 752.818 1060.61C741.181 1077.15 721.903 1076.16 712.217 1058.5C707.965 1050.73 704.576 1042.51 700.324 1033.52C700.324 1141.73 700.324 1248.68 700.324 1356.92C722.255 1356.95 743.227 1356.95 766.085 1356.79ZM281.01 1030.77C281.01 1070.18 281.01 1109.58 281.01 1150.59C304.156 1115.12 326.343 1081.12 349.553 1045.52C349.553 963.669 349.553 879.453 349.553 795.014C326.439 795.014 304.188 795.014 281.01 795.014C281.01 873.248 281.01 950.971 281.01 1030.77ZM440.475 784.555C440.475 826.647 440.475 868.738 440.475 913.229C443.48 909.647 444.663 908.367 445.686 906.992C463.748 882.62 482.035 858.343 499.682 833.651C502.624 829.525 504.03 823.416 504.062 818.235C504.382 757.24 504.286 696.245 504.286 635.251C504.286 622.745 504.286 610.271 504.286 597.573C482.834 597.573 461.734 597.573 440.475 597.573C440.475 659.879 440.475 721.161 440.475 784.555ZM1322.29 474.944C1322.29 430.901 1322.29 386.826 1322.29 342.336C1299.4 342.336 1276.48 342.336 1253.24 342.336C1253.24 432.372 1253.24 521.801 1253.24 613.437C1255.8 609.823 1257.33 608.096 1258.39 606.145C1278.14 570.162 1298.12 534.243 1317.37 497.973C1320.63 491.832 1320.66 483.996 1322.29 474.944ZM313.395 1164.44C304.699 1177.45 295.748 1190.28 287.532 1203.55C284.942 1207.74 283.152 1213.15 283.088 1218.01C282.64 1258.66 282.704 1299.35 282.608 1340C282.608 1345.5 282.608 1351.03 282.608 1356.25C305.69 1356.25 327.558 1356.25 349.904 1356.25C349.904 1274.46 349.904 1193.83 349.904 1110.51C337.085 1129.6 325.767 1146.46 313.395 1164.44ZM391.081 1048.46C379.668 1061.57 374.905 1076.19 375.097 1094.2C376.024 1178.7 375.576 1263.24 375.64 1347.74C375.64 1350.78 375.928 1353.79 376.056 1356.02C389.323 1356.02 401.759 1356.02 413.78 1356.02C413.78 1243.18 413.78 1131.49 413.78 1019.83C413.045 1019.64 412.277 1019.42 411.542 1019.23C405.052 1028.57 398.53 1037.91 391.081 1048.46ZM893.069 641.488C893.069 694.23 893.069 747.005 893.069 799.844C894.188 799.748 894.635 799.844 894.763 799.652C916.215 771.729 937.699 743.839 959.022 715.82C960.397 713.997 961.228 711.278 961.228 708.975C961.356 672.225 961.324 635.475 961.324 597.765C938.817 597.765 916.247 597.765 893.069 597.765C893.069 612.126 893.069 625.751 893.069 641.488ZM190.632 1349.28C189.832 1351.32 189.001 1353.4 187.978 1355.96C211.668 1355.96 234.398 1355.96 256.969 1355.96C256.969 1321.1 256.969 1287.77 256.969 1252.68C234.462 1285.37 212.946 1316.62 190.632 1349.28Z" fill="#002583"/>
<path d="M109.684 1324.33C109.844 1353.79 110.004 1382.19 110.1 1410.59C110.164 1432.05 122.025 1444.24 143.316 1444.27C311.924 1444.59 480.532 1445.04 649.14 1445.07C920.467 1445.13 1191.76 1444.91 1463.09 1444.78C1483.77 1444.78 1504.46 1444.59 1525.14 1444.27C1534.22 1444.14 1541.41 1446.96 1542.63 1456.74C1543.91 1466.85 1536.78 1470.91 1528.27 1472.74C1524.57 1473.54 1520.63 1473.57 1516.8 1473.57C1279.84 1473.31 1042.85 1472.8 805.888 1472.77C595.207 1472.74 384.527 1473.25 173.879 1473.44C159.877 1473.44 145.874 1472.93 131.903 1471.94C106.008 1470.05 83.5012 1448.91 83.9488 1419.61C84.4923 1382.8 84.5243 1345.98 84.5243 1309.13C84.3324 941.951 84.1087 574.736 83.725 207.553C83.6931 173.969 82.67 140.353 82.0306 106.769C81.9028 100.34 88.5205 93.7193 95.6497 93.4954C103.227 93.2396 110.228 100.116 110.228 108.112C110.164 129.51 109.78 150.908 109.78 172.274C109.748 402.691 109.812 633.108 109.78 863.525C109.748 1016.76 109.684 1170 109.684 1324.33Z" fill="#002583"/>
<mask id="mask0_10_6" style="mask-type:luminance" maskUnits="userSpaceOnUse" x="137" y="143" width="1406" height="1244">
<mask id="mask1_10_6" style="mask-type:luminance" maskUnits="userSpaceOnUse" x="137" y="143" width="1466" height="1244">
<mask id="mask2_10_6" style="mask-type:luminance" maskUnits="userSpaceOnUse" x="0" y="0" width="1712" height="1548">
<path d="M1.75483 794.022C1.56301 568.179 1.53104 343.391 0.923621 118.603C0.827712 85.4352 13.8713 59.2079 36.7296 36.7547C61.634 12.2545 91.9412 0.739996 126.66 0.739996C610.393 0.708011 1094.13 0.548086 1577.83 0.899916C1645.41 0.931901 1695.86 49.6765 1710.66 109.392C1711.24 111.727 1711.01 114.253 1711.01 116.716C1711.01 148.637 1711.3 180.557 1710.69 212.446C1710.6 218.107 1707.91 224.632 1704.43 229.206C1685.95 253.354 1666.54 276.799 1648.16 301.012C1644.99 305.202 1643.91 311.918 1643.91 317.452C1643.72 502.611 1643.81 687.769 1643.81 872.96C1643.81 1056.71 1642.53 1240.5 1644.52 1424.25C1645.12 1481.05 1592.47 1547.64 1520.76 1547.39C1339.21 1546.75 1157.62 1546.24 976.062 1546.24C692.14 1546.24 408.217 1546.49 124.295 1547.23C60.8028 1547.39 9.5874 1492.21 2.23438 1444.21C0.667866 1433.91 1.3712 1423.22 1.3712 1412.7C1.49908 1206.78 1.62695 1000.93 1.75483 794.022ZM86.0908 1505.65C106.232 1516.39 128.291 1516.97 150.254 1516.94C329.732 1516.71 509.209 1516.08 688.687 1516.08C952.66 1516.08 1216.6 1516.49 1480.58 1516.62C1497.71 1516.62 1515.2 1517.42 1531.98 1514.64C1582.37 1506.29 1616.77 1457.83 1616.67 1408.86C1616.03 1050.09 1616.29 691.288 1616.25 332.516C1616.25 321.29 1615.55 310.063 1616.09 298.869C1616.35 293.335 1617.18 286.714 1620.31 282.556C1638.22 258.824 1657.18 235.891 1675.11 212.222C1679.01 207.073 1682.3 200.004 1682.5 193.703C1683.13 173.041 1683.33 152.251 1681.7 131.685C1678.6 93.0156 1658.84 64.2614 1625.49 44.9747C1605.26 33.3003 1582.88 30.2938 1559.89 30.2938C1405.99 30.3897 1252.12 30.4857 1098.22 30.4537C779.577 30.4537 460.903 30.3897 142.261 30.2618C117.709 30.2618 94.5947 34.6437 73.7185 48.461C47.7272 65.7007 30.1439 89.4014 29.7922 120.49C28.5454 227.095 29.2487 333.7 29.1848 440.305C29.0569 762.613 29.0249 1084.89 28.6093 1407.2C28.5454 1451.15 46.7042 1483.55 86.0908 1505.65Z" fill="white"/>
</mask>
<g mask="url(#mask2_10_6)">
<path d="M1564.53 216.124C1528.82 263.014 1493.65 309.424 1458.26 355.609C1446.94 370.386 1441.22 385.611 1441.28 405.313C1442.02 717.099 1441.86 1028.89 1441.86 1340.67C1441.86 1345.88 1441.86 1351.1 1441.86 1356.28C1459 1356.28 1475.4 1356.25 1491.8 1356.31C1499.37 1356.34 1506.92 1358.77 1507.94 1366.61C1508.61 1371.82 1505.54 1378.7 1501.9 1382.86C1499.34 1385.77 1492.98 1386.19 1488.31 1386.19C1430.48 1386.31 1372.65 1386.12 1314.78 1386.12C1022.07 1386.09 729.384 1386.06 436.67 1386.12C344.821 1386.15 252.972 1386.57 161.156 1386.41C155.017 1386.41 147.824 1384.17 142.965 1380.52C133.918 1373.71 137.626 1365.17 142.901 1357.4C164.672 1325.32 186.412 1293.24 208.215 1261.22C223.528 1238.74 238.938 1216.35 256.873 1190.18C256.873 1156.95 256.905 1119.47 256.873 1081.95C256.745 985.162 256.521 888.345 256.393 791.56C256.361 770.897 259.91 767.891 280.115 768.083C305.339 768.339 330.595 768.019 355.819 767.507C370.301 767.219 375.448 771.761 375.48 786.474C375.64 856.264 375.768 926.055 375.96 995.845C375.96 999.172 376.535 1002.5 379.317 1006.69C390.698 989.736 402.495 973.072 413.108 955.673C415.698 951.419 414.643 944.766 414.675 939.201C414.867 823.832 414.963 708.432 415.059 593.063C415.059 577.071 421.101 570.93 437.118 570.866C462.022 570.77 486.894 570.77 511.799 570.802C527.144 570.834 530.885 574.8 530.853 590.025C530.789 652.107 530.821 714.189 530.853 776.239C530.853 778.158 531.172 780.109 531.62 785.131C541.019 770.066 548.628 757.368 556.748 745.022C564.9 732.676 578.136 728.806 589.229 736.642C594.824 740.608 599.236 747.293 602.305 753.658C622.318 794.918 641.787 836.434 661.545 877.822C664.933 884.955 668.77 891.863 674.78 898.516C675.132 894.646 675.803 890.808 675.803 886.938C675.803 694.39 675.771 501.843 675.739 309.328C675.739 305.457 675.739 301.619 675.931 297.749C676.475 285.947 681.941 280.541 693.514 280.541C723.31 280.541 753.106 280.541 782.902 280.701C793.835 280.765 797.895 285.243 797.831 296.182C797.544 354.394 797.192 412.606 797.096 470.786C796.872 582.668 796.776 694.55 796.648 806.4C796.617 844.91 796.648 883.387 796.648 924.647C800.868 921.257 803.938 919.53 805.984 916.971C825.101 893.367 844.379 869.89 862.698 845.678C866.47 840.72 867.781 832.82 867.813 826.263C868.228 740.352 868.26 654.41 868.228 568.499C868.228 521.513 867.717 474.528 868.101 427.543C868.133 423.161 872.065 417.308 875.933 414.781C882.775 410.303 888.305 415.069 893.293 420.922C893.293 470.37 893.293 520.074 893.293 570.706C916.567 570.706 939.233 570.706 961.9 570.706C982.712 570.706 987.06 575.855 986.708 597.093C986.228 626.871 986.58 656.648 986.58 687.578C1000.26 689.657 1005.51 700.883 1011.07 712.366C1020.24 731.269 1030.15 749.852 1039.75 768.563C1040.61 768.371 1041.5 768.211 1042.37 768.019C1042.37 757.784 1042.37 747.549 1042.37 737.314C1042.27 626.135 1042.18 514.957 1042.08 403.778C1042.08 386.347 1047.1 381.613 1064.59 381.805C1090.87 382.061 1117.18 381.997 1143.46 382.157C1160.69 382.252 1164.24 385.931 1164.2 403.17C1164.14 525.927 1164.11 648.684 1164.08 771.409C1164.08 772.081 1164.33 772.721 1164.72 774.608C1166.15 772.849 1167.27 771.825 1167.98 770.546C1187 735.714 1206.15 700.915 1224.82 665.86C1226.96 661.83 1227.18 656.457 1227.18 651.691C1227.28 545.086 1227.22 438.449 1227.15 331.845C1227.15 319.339 1232.3 314.445 1245.05 314.477C1272.74 314.509 1300.43 314.125 1328.11 314.509C1334.28 314.605 1340.42 317.228 1347.33 318.891C1347.33 363.51 1347.33 406.113 1347.33 451.819C1358.04 436.338 1366.86 422.905 1376.42 409.983C1429.04 338.977 1481.79 268.131 1534.57 197.254C1540.39 189.449 1546.11 182.509 1544.87 171.154C1543.27 156.825 1553.69 146.078 1568.2 143.871C1581.76 141.824 1596.66 150.492 1600.97 162.934C1605 174.544 1597.74 187.05 1585.5 194.983C1577.57 200.196 1571.75 208.608 1564.53 216.124ZM1348.41 771.953C1348.41 966.771 1348.41 1161.59 1348.41 1356.18C1371.46 1356.18 1393.75 1356.18 1416.22 1356.18C1416.22 1042.29 1416.22 729.413 1416.22 416.572C1393.46 446.797 1372.26 477.599 1351.87 508.976C1348.57 514.061 1347.77 521.545 1347.77 527.91C1347.77 608.544 1348.16 689.177 1348.41 771.953ZM1323.67 877.15C1323.67 772.241 1323.67 667.363 1323.67 560.215C1321.4 563.413 1320.31 564.661 1319.51 566.1C1299.53 602.147 1279.71 638.321 1259.57 674.272C1254.13 683.995 1252.44 693.975 1252.44 705.041C1252.63 918.155 1252.57 1131.27 1252.57 1344.35C1252.57 1348.16 1252.57 1351.96 1252.57 1355.8C1276.61 1355.8 1299.82 1355.8 1323.67 1355.8C1323.67 1196.04 1323.67 1037.65 1323.67 877.15ZM699.557 658.312C699.621 752.954 699.684 847.629 699.844 942.271C699.844 947.804 699.301 954.041 701.571 958.743C711.801 980.173 722.926 1001.19 734.755 1024.41C744.826 1009.95 753.01 997.061 762.409 985.13C769.986 975.503 772.703 965.364 772.671 953.21C772.192 744.286 772.064 535.363 771.808 326.407C771.808 320.618 771.297 314.829 771.009 308.784C746.808 308.784 723.854 308.784 699.557 308.784C699.557 425.016 699.557 540.608 699.557 658.312ZM961.932 1039.18C961.932 949.628 961.932 860.071 961.932 768.499C946.107 788.649 932.775 808.288 916.695 825.335C898.12 845.038 892.685 866.787 892.845 893.527C893.804 1044.27 893.165 1195.01 893.069 1345.76C893.069 1349.18 893.069 1352.57 893.069 1355.99C916.535 1355.99 939.041 1355.99 961.932 1355.99C961.932 1250.15 961.932 1145.73 961.932 1039.18ZM599.843 1347.84C599.747 1185.16 599.364 1022.49 599.907 859.815C599.971 836.21 598.437 814.045 584.242 794.278C581.685 790.728 580.342 786.314 577.688 780.813C565.892 797.349 555.31 813.629 543.225 828.694C533.922 840.272 530.629 852.362 530.661 867.075C530.981 1010.11 530.725 1153.18 530.661 1296.21C530.661 1316.14 530.661 1336.07 530.661 1356.25C553.935 1356.25 575.93 1356.25 598.309 1356.25C598.884 1353.72 599.332 1351.77 599.843 1347.84ZM1195.41 792.519C1186.81 809.087 1177.57 825.399 1169.86 842.383C1166.41 849.964 1164.46 858.951 1164.43 867.299C1164.11 1026.17 1164.2 1185.03 1164.2 1343.9C1164.2 1348.03 1164.2 1352.12 1164.2 1355.9C1185.66 1355.9 1206.15 1355.9 1226.9 1355.9C1226.9 1148.35 1226.9 942.079 1226.9 733.827C1215.93 754.042 1205.89 772.529 1195.41 792.519ZM1093.45 878.494C1096.11 883.195 1098.76 887.897 1101.8 893.239C1113.72 871.137 1125.33 850.155 1136.26 828.822C1138.5 824.44 1138.92 818.746 1138.92 813.661C1139.04 682.908 1139.04 552.155 1139.01 421.402C1139.01 417.659 1138.69 413.917 1138.53 410.111C1114.52 410.111 1091.28 410.111 1068.13 410.111C1067.88 412.094 1067.62 413.118 1067.62 414.141C1067.69 548.764 1067.69 683.356 1067.97 817.979C1067.97 824.056 1069.64 830.549 1072.16 836.082C1078.49 849.995 1085.78 863.461 1093.45 878.494ZM1042.21 856.616C1040.83 850.635 1040.42 844.238 1037.92 838.769C1030.86 823.384 1023.15 808.288 1015.32 793.287C1006.56 776.527 997.354 760.023 986.996 740.896C986.996 948.22 986.996 1152.12 986.996 1355.96C1006.24 1355.96 1023.89 1355.96 1042.24 1355.96C1042.21 1189.32 1042.21 1023.96 1042.21 856.616ZM1139.04 1266.47C1139.04 1144.16 1139.04 1021.88 1139.04 899.572C1132.2 909.455 1127.57 919.658 1121.72 929.061C1111.61 945.246 1092.14 944.606 1083.03 927.942C1078.43 919.53 1074.75 910.606 1070.66 901.938C1070.05 902.034 1069.41 902.098 1068.81 902.194C1068.81 1053.35 1068.81 1204.51 1068.81 1356.47C1091.76 1356.47 1115.07 1356.47 1139.08 1356.47C1139.04 1326.66 1139.04 1297.62 1139.04 1266.47ZM796.425 1224.38C796.425 1268.42 796.425 1312.49 796.425 1356.25C821.841 1356.25 844.475 1356.25 868.005 1356.25C868.005 1201.73 868.005 1048.11 868.005 894.646C867.749 894.742 866.854 894.806 866.502 895.286C846.393 921.097 826.348 946.973 806.239 972.752C798.918 982.124 795.945 992.263 796.041 1004.55C796.648 1077.15 796.393 1149.69 796.425 1224.38ZM504.318 1098.1C504.318 1027.41 504.318 956.696 504.318 885.882C483.314 914.764 462.054 943.934 441.21 972.56C441.21 1101.07 441.21 1228.89 441.21 1356.06C462.885 1356.06 483.666 1356.06 504.318 1356.06C504.318 1269.86 504.318 1185.03 504.318 1098.1ZM624.684 1145.57C624.684 1215.9 624.684 1286.27 624.684 1355.9C642.747 1355.9 658.731 1355.9 675.867 1355.9C675.867 1350.94 675.867 1346.81 675.867 1342.72C675.771 1231.64 675.292 1120.52 675.931 1009.44C676.059 987.849 672.414 968.402 661.673 949.755C654.256 936.93 648.405 923.176 641.692 909.935C637.088 900.819 632.229 891.863 627.465 882.844C626.538 883.004 625.611 883.163 624.684 883.323C624.716 970.066 624.716 1056.81 624.684 1145.57ZM766.085 1356.79C776.476 1355.03 771.744 1346.75 771.744 1341.66C771.904 1245.61 771.648 1149.56 771.488 1053.51C771.488 1047.53 771.488 1041.58 771.488 1035.6C763.752 1043.82 758.605 1052.43 752.818 1060.61C741.181 1077.15 721.903 1076.16 712.217 1058.5C707.965 1050.73 704.576 1042.51 700.324 1033.52C700.324 1141.73 700.324 1248.68 700.324 1356.92C722.255 1356.95 743.227 1356.95 766.085 1356.79ZM281.01 1030.77C281.01 1070.18 281.01 1109.58 281.01 1150.59C304.156 1115.12 326.343 1081.12 349.553 1045.52C349.553 963.669 349.553 879.453 349.553 795.014C326.439 795.014 304.188 795.014 281.01 795.014C281.01 873.248 281.01 950.971 281.01 1030.77ZM440.475 784.555C440.475 826.647 440.475 868.738 440.475 913.229C443.48 909.647 444.663 908.367 445.686 906.992C463.748 882.62 482.035 858.343 499.682 833.651C502.624 829.525 504.03 823.416 504.062 818.235C504.382 757.24 504.286 696.245 504.286 635.251C504.286 622.745 504.286 610.271 504.286 597.573C482.834 597.573 461.734 597.573 440.475 597.573C440.475 659.879 440.475 721.161 440.475 784.555ZM1322.29 474.944C1322.29 430.901 1322.29 386.826 1322.29 342.336C1299.4 342.336 1276.48 342.336 1253.24 342.336C1253.24 432.372 1253.24 521.801 1253.24 613.437C1255.8 609.823 1257.33 608.096 1258.39 606.145C1278.14 570.162 1298.12 534.243 1317.37 497.973C1320.63 491.832 1320.66 483.996 1322.29 474.944ZM313.395 1164.44C304.699 1177.45 295.748 1190.28 287.532 1203.55C284.942 1207.74 283.152 1213.15 283.088 1218.01C282.64 1258.66 282.704 1299.35 282.608 1340C282.608 1345.5 282.608 1351.03 282.608 1356.25C305.69 1356.25 327.558 1356.25 349.904 1356.25C349.904 1274.46 349.904 1193.83 349.904 1110.51C337.085 1129.6 325.767 1146.46 313.395 1164.44ZM391.081 1048.46C379.668 1061.57 374.905 1076.19 375.097 1094.2C376.024 1178.7 375.576 1263.24 375.64 1347.74C375.64 1350.78 375.928 1353.79 376.056 1356.02C389.323 1356.02 401.759 1356.02 413.78 1356.02C413.78 1243.18 413.78 1131.49 413.78 1019.83C413.045 1019.64 412.277 1019.42 411.542 1019.23C405.052 1028.57 398.53 1037.91 391.081 1048.46ZM893.069 641.488C893.069 694.23 893.069 747.005 893.069 799.844C894.188 799.748 894.635 799.844 894.763 799.652C916.215 771.729 937.699 743.839 959.022 715.82C960.397 713.997 961.228 711.278 961.228 708.975C961.356 672.225 961.324 635.475 961.324 597.765C938.817 597.765 916.247 597.765 893.069 597.765C893.069 612.126 893.069 625.751 893.069 641.488ZM190.632 1349.28C189.832 1351.32 189.001 1353.4 187.978 1355.96C211.668 1355.96 234.398 1355.96 256.969 1355.96C256.969 1321.1 256.969 1287.77 256.969 1252.68C234.462 1285.37 212.946 1316.62 190.632 1349.28Z" fill="white"/>
</g>
</mask>
<g mask="url(#mask1_10_6)">
<path d="M109.684 1324.33C109.844 1353.79 110.004 1382.19 110.1 1410.59C110.164 1432.05 122.025 1444.24 143.316 1444.27C311.924 1444.59 480.532 1445.04 649.14 1445.07C920.467 1445.13 1191.76 1444.91 1463.09 1444.78C1483.77 1444.78 1504.46 1444.59 1525.14 1444.27C1534.22 1444.14 1541.41 1446.96 1542.63 1456.74C1543.91 1466.85 1536.78 1470.91 1528.27 1472.74C1524.57 1473.54 1520.63 1473.57 1516.8 1473.57C1279.84 1473.31 1042.85 1472.8 805.888 1472.77C595.207 1472.74 384.527 1473.25 173.879 1473.44C159.877 1473.44 145.874 1472.93 131.903 1471.94C106.008 1470.05 83.5012 1448.91 83.9488 1419.61C84.4923 1382.8 84.5243 1345.98 84.5243 1309.13C84.3324 941.951 84.1087 574.736 83.725 207.553C83.6931 173.969 82.67 140.353 82.0306 106.769C81.9028 100.34 88.5205 93.7193 95.6497 93.4954C103.227 93.2396 110.228 100.116 110.228 108.112C110.164 129.51 109.78 150.908 109.78 172.274C109.748 402.691 109.812 633.108 109.78 863.525C109.748 1016.76 109.684 1170 109.684 1324.33Z" fill="white"/>
</g>
</mask>
<g mask="url(#mask0_10_6)">
<path d="M1741 -124H-29V1672.03H1741V-124Z" fill="#002583"/>
</g>
</svg>
