<svg width="800" height="800" viewBox="0 0 800 800" fill="none" xmlns="http://www.w3.org/2000/svg">
<path d="M674 311C664 280.667 670.667 241.667 652.333 216.667C634 191.667 594.667 185.333 569.333 166.667C544 148 526.667 113 496.333 103.333C466 93.6667 433.333 112 400 112C366.667 112 333.333 93.6667 303.667 103.333C274 113 256 148.667 230.667 166.667C205.333 184.667 166.667 191 147.667 216.667C128.667 242.333 136 280.667 126 311C116 341.333 88 366.667 88 400C88 433.333 116.667 459.667 126 489C135.333 518.333 129.333 558.333 147.667 583.333C166 608.333 205.333 614.667 230.667 633C256 651.333 273.333 687 303.667 696.667C334 706.333 366.667 688 400 688C433.333 688 466.667 706.333 496.333 696.667C526 687 544 651.333 569.333 633C594.667 614.667 634 609 652.333 583.333C670.667 557.667 664 519.333 674 489C684 458.667 712 433.333 712 400C712 366.667 683.333 340.333 674 311Z" fill="#D2DFFF"/>
<path d="M315 316.667H318.333" stroke="#A3BCFB" stroke-width="83.3333" stroke-linecap="round" stroke-linejoin="round"/>
<path d="M481.667 483.333H485" stroke="#A3BCFB" stroke-width="83.3333" stroke-linecap="round" stroke-linejoin="round"/>
<path d="M300 500L500 300M674 311C664 280.667 670.667 241.667 652.333 216.667C634 191.667 594.667 185.333 569.333 166.667C544 148 526.667 113 496.333 103.333C466 93.6667 433.333 112 400 112C366.667 112 333.333 93.6667 303.667 103.333C274 113 256 148.667 230.667 166.667C205.333 184.667 166.667 191 147.667 216.667C128.667 242.333 136 280.667 126 311C116 341.333 88 366.667 88 400C88 433.333 116.667 459.667 126 489C135.333 518.333 129.333 558.333 147.667 583.333C166 608.333 205.333 614.667 230.667 633C256 651.333 273.333 687 303.667 696.667C334 706.333 366.667 688 400 688C433.333 688 466.667 706.333 496.333 696.667C526 687 544 651.333 569.333 633C594.667 614.667 634 609 652.333 583.333C670.667 557.667 664 519.333 674 489C684 458.667 712 433.333 712 400C712 366.667 683.333 340.333 674 311Z" stroke="#A3BCFB" stroke-width="66.6667" stroke-linecap="round" stroke-linejoin="round"/>
</svg>
