<svg width="800" height="800" viewBox="0 0 800 800" fill="none" xmlns="http://www.w3.org/2000/svg">
<g clip-path="url(#clip0_8_15)">
<path d="M309.375 432.5L225 690L431.25 472.5L520 501.25C528.125 503.75 537.5 500.625 541.875 493.125L775 110L38.75 308.125C20.625 313.125 20 338.125 37.5 343.75L165 385.625L224.375 690" fill="white"/>
<path d="M225 696.25C223.75 696.25 222.5 695.625 221.25 695C220.625 695 220.625 694.375 220.625 694.375C220 693.75 219.375 692.5 218.75 691.25L160 390.625L36.25 350C25 346.875 18.75 336.875 18.75 325.625C18.75 314.375 26.25 305 37.5 301.875L773.75 103.125C776.25 102.5 778.75 103.125 780.625 105.625C781.875 107.5 782.5 110.625 781.25 112.5L546.875 496.875C540.625 506.875 528.75 511.25 517.5 507.5L432.5 480L228.75 695C228.125 695.625 226.875 696.25 225.625 696.875C225.625 696.25 225 696.25 225 696.25ZM309.375 426.25H311.25C314.375 427.5 316.25 430.625 315 434.375L239.375 665.625L426.25 468.125C428.125 466.25 430.625 465.625 432.5 466.25L521.25 495C526.875 496.875 532.5 494.375 535.625 489.375L760.625 118.75L40.625 314.375C33.75 316.25 31.25 321.25 31.25 326.25C31.25 331.25 33.125 336.25 40 338.75L167.5 380.625C169.375 381.25 171.25 383.125 171.875 385.625L226.25 666.25L303.125 431.875C303.75 428.125 306.25 426.25 309.375 426.25Z" fill="#002583"/>
<path d="M298.75 238.125L453.75 254.375L466.875 321.875L529.375 278.75L625.625 355L775 110L298.75 238.125Z" fill="#D2DFFF"/>
<path d="M625.625 361.25C624.375 361.25 623.125 360.625 621.875 360L529.375 286.875L470.625 326.875C468.75 328.125 466.875 328.125 465 327.5C463.125 326.875 461.875 325 461.25 323.125L448.75 260L298.125 244.375C295 244.375 292.5 241.875 292.5 238.75C292.5 235.625 294.375 233.125 296.875 232.5L773.125 104.375C775.625 103.75 778.125 104.375 780 106.875C781.25 108.75 781.875 111.875 780.625 113.75L631.25 358.125C630.625 359.375 628.75 360.625 626.875 361.25H625.625ZM529.375 272.5C530.625 272.5 531.25 272.5 531.875 273.125C532.5 273.125 532.5 273.75 533.125 273.75L623.75 345.625L761.25 120L333.125 235.625L454.375 248.125C456.875 248.125 459.375 250.625 460 253.125L471.25 311.25L525.625 273.75C526.875 273.125 528.125 272.5 529.375 272.5Z" fill="#002583"/>
<path d="M225 690L431.25 472.5L309.375 432.5L225 690Z" fill="#111318"/>
<path d="M775 110L165 384.375L225 690L431.25 472.5L309.375 432.5L775 110Z" fill="#A3BCFB"/>
<path d="M225 696.25H223.125C220.625 695.625 219.375 693.75 218.75 691.25L159.375 385.625C158.75 382.5 160 380 163.125 378.75L773.125 104.375C776.25 103.125 779.375 104.375 781.25 106.875C783.125 110 781.875 113.125 779.375 115L323.125 430.625L433.125 466.875C435 467.5 436.875 469.375 437.5 471.25C438.125 473.125 437.5 475.625 436.25 476.875L230 694.375C228.125 695.625 226.25 696.25 225 696.25ZM172.5 388.125L228.75 676.875L420 475L307.5 438.125C305 437.5 303.75 435.625 303.125 433.125C302.5 430.625 303.75 428.125 305.625 426.875L715.625 143.75L172.5 388.125Z" fill="#002583"/>
<path d="M409.292 647.144H421.428C428.097 647.144 433.345 645.668 437.172 642.716C440.999 639.655 442.912 635.227 442.912 629.432C442.912 623.528 441.053 619.155 437.336 616.312C433.728 613.469 428.535 612.048 421.756 612.048C419.351 612.048 417.109 612.157 415.032 612.376C412.955 612.485 411.041 612.704 409.292 613.032V647.144ZM422.576 663.708H388.628V605.652C388.628 603.684 389.175 602.153 390.268 601.06C391.471 599.967 393.001 599.092 394.86 598.436C398.359 597.343 402.513 596.523 407.324 595.976C412.135 595.429 416.617 595.156 420.772 595.156C435.204 595.156 445.973 598.217 453.08 604.34C460.296 610.463 463.904 618.772 463.904 629.268C463.904 636.265 462.319 642.333 459.148 647.472C455.977 652.611 451.331 656.601 445.208 659.444C439.085 662.287 431.541 663.708 422.576 663.708ZM388.628 654.36H409.456V696.672C408.581 697 407.215 697.273 405.356 697.492C403.607 697.82 401.748 697.984 399.78 697.984C395.844 697.984 393.001 697.273 391.252 695.852C389.503 694.321 388.628 691.807 388.628 688.308V654.36ZM576.772 647.144C576.772 658.515 574.585 668.081 570.212 675.844C565.948 683.607 560.044 689.511 552.5 693.556C545.065 697.492 536.592 699.46 527.08 699.46C517.677 699.46 509.204 697.492 501.66 693.556C494.225 689.511 488.321 683.607 483.948 675.844C479.684 668.081 477.552 658.515 477.552 647.144C477.552 635.773 479.739 626.207 484.112 618.444C488.595 610.681 494.553 604.832 501.988 600.896C509.532 596.851 517.896 594.828 527.08 594.828C536.483 594.828 544.901 596.851 552.336 600.896C559.88 604.832 565.839 610.681 570.212 618.444C574.585 626.207 576.772 635.773 576.772 647.144ZM555.616 647.144C555.616 635.664 552.992 626.917 547.744 620.904C542.605 614.891 535.717 611.884 527.08 611.884C518.661 611.884 511.828 614.891 506.58 620.904C501.441 626.917 498.872 635.664 498.872 647.144C498.872 658.733 501.441 667.535 506.58 673.548C511.719 679.561 518.607 682.568 527.244 682.568C535.881 682.568 542.769 679.561 547.908 673.548C553.047 667.535 555.616 658.733 555.616 647.144ZM690.963 647.144C690.963 658.515 688.777 668.081 684.403 675.844C680.139 683.607 674.235 689.511 666.691 693.556C659.257 697.492 650.783 699.46 641.271 699.46C631.869 699.46 623.395 697.492 615.851 693.556C608.417 689.511 602.513 683.607 598.139 675.844C593.875 668.081 591.743 658.515 591.743 647.144C591.743 635.773 593.93 626.207 598.303 618.444C602.786 610.681 608.745 604.832 616.179 600.896C623.723 596.851 632.087 594.828 641.271 594.828C650.674 594.828 659.093 596.851 666.527 600.896C674.071 604.832 680.03 610.681 684.403 618.444C688.777 626.207 690.963 635.773 690.963 647.144ZM669.807 647.144C669.807 635.664 667.183 626.917 661.935 620.904C656.797 614.891 649.909 611.884 641.271 611.884C632.853 611.884 626.019 614.891 620.771 620.904C615.633 626.917 613.063 635.664 613.063 647.144C613.063 658.733 615.633 667.535 620.771 673.548C625.91 679.561 632.798 682.568 641.435 682.568C650.073 682.568 656.961 679.561 662.099 673.548C667.238 667.535 669.807 658.733 669.807 647.144ZM711.183 631.892H732.011V695.852L722.335 697.164C718.945 697.164 716.212 696.18 714.135 694.212C712.167 692.135 711.183 689.456 711.183 686.176V631.892ZM722.335 697.164V680.108H774.487C775.143 680.983 775.689 682.131 776.127 683.552C776.673 684.973 776.947 686.559 776.947 688.308C776.947 691.26 776.236 693.501 774.815 695.032C773.503 696.453 771.699 697.164 769.403 697.164H722.335ZM732.011 655.18H711.183V597.452C712.167 597.233 713.533 596.96 715.283 596.632C717.141 596.304 719 596.14 720.859 596.14C724.795 596.14 727.637 596.851 729.387 598.272C731.136 599.584 732.011 602.099 732.011 605.816V655.18Z" fill="#002583"/>
<path d="M33.292 97.328H12.628V49.44C12.628 46.0507 13.612 43.372 15.58 41.404C17.6573 39.436 20.3907 38.452 23.78 38.452C25.6387 38.452 27.4427 38.616 29.192 38.944C31.0507 39.272 32.4173 39.5453 33.292 39.764V97.328ZM23.616 98.804V81.912H72.652C73.1987 82.7867 73.6907 83.9347 74.128 85.356C74.6747 86.7773 74.948 88.308 74.948 89.948C74.948 92.7907 74.292 94.9773 72.98 96.508C71.668 98.0387 69.8093 98.804 67.404 98.804H23.616ZM23.78 55.344V38.452H78.228C78.7747 39.2173 79.2667 40.3653 79.704 41.896C80.2507 43.3173 80.524 44.848 80.524 46.488C80.524 49.3307 79.868 51.5173 78.556 53.048C77.244 54.5787 75.3853 55.344 72.98 55.344H23.78ZM12.628 84.536H33.456V137.836C32.5813 138.055 31.2147 138.273 29.356 138.492C27.6067 138.82 25.8027 138.984 23.944 138.984C20.008 138.984 17.1107 138.273 15.252 136.852C13.5027 135.321 12.628 132.861 12.628 129.472V84.536ZM98.6319 72.892H119.46V136.852L109.784 138.164C106.395 138.164 103.661 137.18 101.584 135.212C99.6159 133.135 98.6319 130.456 98.6319 127.176V72.892ZM109.784 138.164V121.108H161.936C162.592 121.983 163.139 123.131 163.576 124.552C164.123 125.973 164.396 127.559 164.396 129.308C164.396 132.26 163.685 134.501 162.264 136.032C160.952 137.453 159.148 138.164 156.852 138.164H109.784ZM119.46 96.18H98.6319V38.452C99.6159 38.2333 100.983 37.96 102.732 37.632C104.591 37.304 106.449 37.14 108.308 37.14C112.244 37.14 115.087 37.8507 116.836 39.272C118.585 40.584 119.46 43.0987 119.46 46.816V96.18ZM181.917 72.236H202.581V137.672C201.706 138 200.394 138.273 198.645 138.492C196.896 138.82 195.037 138.984 193.069 138.984C189.133 138.984 186.29 138.273 184.541 136.852C182.792 135.321 181.917 132.807 181.917 129.308V72.236ZM202.581 96.18H181.917V38.452C182.792 38.2333 184.158 37.96 186.017 37.632C187.876 37.304 189.734 37.14 191.593 37.14C195.42 37.14 198.208 37.8507 199.957 39.272C201.706 40.584 202.581 43.0987 202.581 46.816V96.18ZM312.494 89.62V124.388C312.494 127.012 311.893 129.089 310.69 130.62C309.597 132.151 307.793 133.572 305.278 134.884C302.436 136.415 298.336 137.727 292.978 138.82C287.73 139.913 282.428 140.46 277.07 140.46C266.684 140.46 257.39 138.656 249.19 135.048C241.1 131.331 234.704 125.645 230.002 117.992C225.301 110.229 222.95 100.335 222.95 88.308C222.95 76.7187 225.356 67.0427 230.166 59.28C234.977 51.5173 241.373 45.668 249.354 41.732C257.445 37.796 266.356 35.828 276.086 35.828C282.646 35.828 288.332 36.5387 293.142 37.96C298.062 39.3813 301.834 41.24 304.458 43.536C307.192 45.832 308.558 48.3467 308.558 51.08C308.558 53.1573 307.957 55.016 306.754 56.656C305.661 58.296 304.404 59.5533 302.982 60.428C300.03 58.5693 296.532 56.8747 292.486 55.344C288.441 53.704 283.466 52.884 277.562 52.884C271.221 52.884 265.481 54.2507 260.342 56.984C255.313 59.7173 251.377 63.7627 248.534 69.12C245.692 74.368 244.27 80.764 244.27 88.308C244.27 96.3987 245.692 103.068 248.534 108.316C251.377 113.455 255.313 117.281 260.342 119.796C265.372 122.311 271.057 123.568 277.398 123.568C280.569 123.568 283.466 123.295 286.09 122.748C288.824 122.201 290.956 121.545 292.486 120.78V97.492H271.166C270.729 96.7267 270.237 95.6333 269.69 94.212C269.253 92.6813 269.034 91.1507 269.034 89.62C269.034 86.668 269.69 84.536 271.002 83.224C272.314 81.8027 274.118 81.092 276.414 81.092H303.966C306.481 81.092 308.504 81.8573 310.034 83.388C311.674 84.9187 312.494 86.996 312.494 89.62ZM335.023 72.4H355.851V137.672C354.976 138 353.609 138.273 351.751 138.492C350.001 138.82 348.143 138.984 346.175 138.984C342.239 138.984 339.396 138.273 337.647 136.852C335.897 135.321 335.023 132.807 335.023 129.308V72.4ZM355.851 96.18H335.023V38.452C336.007 38.2333 337.373 37.96 339.123 37.632C340.981 37.304 342.84 37.14 344.699 37.14C348.635 37.14 351.477 37.8507 353.227 39.272C354.976 40.584 355.851 43.0987 355.851 46.816V96.18ZM397.671 72.4H418.335V137.672C417.46 138 416.093 138.273 414.235 138.492C412.485 138.82 410.681 138.984 408.823 138.984C404.777 138.984 401.88 138.273 400.131 136.852C398.491 135.321 397.671 132.807 397.671 129.308V72.4ZM418.335 96.18H397.671V38.452C398.545 38.2333 399.857 37.96 401.607 37.632C403.465 37.304 405.324 37.14 407.183 37.14C411.119 37.14 413.961 37.8507 415.711 39.272C417.46 40.6933 418.335 43.2627 418.335 46.98V96.18ZM409.151 96.18H345.191V79.616H409.151V96.18ZM468.041 55.344L467.549 38.452H513.633C514.179 39.2173 514.671 40.3653 515.109 41.896C515.546 43.3173 515.765 44.848 515.765 46.488C515.765 49.3307 515.109 51.5173 513.797 53.048C512.485 54.5787 510.681 55.344 508.385 55.344H468.041ZM482.637 38.452L482.965 55.344H436.881C436.334 54.4693 435.842 53.3213 435.405 51.9C434.967 50.4787 434.749 48.8933 434.749 47.144C434.749 44.192 435.405 42.0053 436.717 40.584C438.029 39.1627 439.833 38.452 442.129 38.452H482.637ZM464.761 50.916H485.425V137.672C484.55 138 483.183 138.273 481.325 138.492C479.575 138.82 477.771 138.984 475.913 138.984C471.867 138.984 468.97 138.273 467.221 136.852C465.581 135.321 464.761 132.807 464.761 129.308V50.916Z" fill="#002583"/>
</g>
<defs>
<clipPath id="clip0_8_15">
<rect width="800" height="800" fill="white"/>
</clipPath>
</defs>
</svg>
