<?xml version="1.0" encoding="utf-8"?><!-- Uploaded to: SVG Repo, www.svgrepo.com, Generator: SVG Repo Mixer Tools -->
<svg width="800px" height="800px" viewBox="0 0 64 64" fill="none" xmlns="http://www.w3.org/2000/svg">
<path d="M10.858 14.139L8.801 24.425C8.67185 25.0708 8.70414 25.7384 8.89498 26.3687C9.08583 26.999 9.42933 27.5724 9.89501 28.038L35.553 53.695C36.3031 54.4449 37.3203 54.8661 38.381 54.8661C39.4417 54.8661 40.4589 54.4449 41.209 53.695L53.552 41.352C53.9235 40.9806 54.2181 40.5396 54.4192 40.0543C54.6202 39.569 54.7237 39.0488 54.7237 38.5235C54.7237 37.9982 54.6202 37.478 54.4192 36.9927C54.2181 36.5074 53.9235 36.0664 53.552 35.695L27.895 10.038C27.4294 9.57233 26.856 9.22883 26.2257 9.03799C25.5954 8.84714 24.9278 8.81486 24.282 8.94401L13.996 11.001C13.2216 11.1559 12.5104 11.5365 11.9519 12.0949C11.3935 12.6534 11.0129 13.3646 10.858 14.139Z" stroke="#000000" stroke-width="4" stroke-linecap="round" stroke-linejoin="round"/>
<path d="M20.378 21.5459C20.9452 21.5459 21.405 21.0861 21.405 20.519C21.405 19.9518 20.9452 19.4919 20.378 19.4919C19.8108 19.4919 19.351 19.9518 19.351 20.519C19.351 21.0861 19.8108 21.5459 20.378 21.5459Z" stroke="#426AB2" stroke-width="4" stroke-linecap="round" stroke-linejoin="round"/>
<path d="M20.378 21.5459C20.9452 21.5459 21.405 21.0861 21.405 20.519C21.405 19.9518 20.9452 19.4919 20.378 19.4919C19.8108 19.4919 19.351 19.9518 19.351 20.519C19.351 21.0861 19.8108 21.5459 20.378 21.5459Z" fill="#426AB2"/>
</svg>